static_grf.mot
version=1
nRows=17
nColumns 19
inDegrees=yes
endheader
time	1_ground_force_vx	1_ground_force_vy	1_ground_force_vz	1_ground_force_px	1_ground_force_py	1_ground_force_pz	1_ground_torque_x	1_ground_torque_y	1_ground_torque_z	2_ground_force_vx	2_ground_force_vy	2_ground_force_vz	2_ground_force_px	2_ground_force_py	2_ground_force_pz	2_ground_torque_x	2_ground_torque_y	2_ground_torque_z
            1.501500	           -3.368674	          418.900289	          -31.717120	           -0.284155	            0.006013	           -0.358533	           -0.021671	            2.694812	           -0.204038	            1.252189	          434.699981	           25.201885	           -0.296204	            0.005440	           -0.704889	           -0.000988	           -0.343056	           -0.019889
            1.502000	           -3.002107	          417.999591	          -31.859459	           -0.284251	            0.006014	           -0.358766	           -0.020028	            2.788626	           -0.212546	            1.205963	          434.516006	           25.107392	           -0.296099	            0.005441	           -0.705051	           -0.001015	           -0.365891	           -0.021142
            1.502500	           -3.460213	          418.719779	          -31.671805	           -0.284091	            0.006014	           -0.358844	           -0.022527	            2.726037	           -0.206196	            1.298313	          434.884793	           25.061738	           -0.295999	            0.005440	           -0.704771	           -0.001143	           -0.382855	           -0.022063
            1.503000	           -3.185497	          418.720422	          -31.810060	           -0.284060	            0.006015	           -0.359033	           -0.020786	            2.732257	           -0.207569	            1.201228	          435.805721	           24.924279	           -0.295783	            0.005443	           -0.705215	           -0.000954	           -0.346080	           -0.019793
            1.503500	           -3.368755	          418.720190	          -31.763745	           -0.284306	            0.006014	           -0.358672	           -0.021885	            2.720256	           -0.206356	            1.301636	          433.964090	           25.058453	           -0.296010	            0.005440	           -0.704627	           -0.001009	           -0.336262	           -0.019417
            1.504000	           -3.322927	          418.179629	          -31.812037	           -0.284101	            0.006013	           -0.358496	           -0.021401	            2.693293	           -0.204886	            1.390786	          435.252637	           25.297653	           -0.296070	            0.005441	           -0.705011	           -0.001343	           -0.420310	           -0.024429
            1.504500	           -3.414400	          417.638587	          -31.768269	           -0.284172	            0.006014	           -0.358852	           -0.022234	            2.719644	           -0.206874	            1.252813	          434.516175	           25.107372	           -0.296013	            0.005439	           -0.704532	           -0.001016	           -0.352466	           -0.020366
            1.505000	           -3.368934	          419.080918	          -31.808059	           -0.284215	            0.006013	           -0.358543	           -0.021940	            2.729207	           -0.207146	            1.108940	          435.436432	           25.110717	           -0.295710	            0.005443	           -0.705149	           -0.000805	           -0.316080	           -0.018228
            1.505500	           -3.506332	          418.359828	          -31.810809	           -0.284059	            0.006014	           -0.358633	           -0.022320	            2.663171	           -0.202499	            1.344560	          435.068601	           25.203159	           -0.295975	            0.005440	           -0.704782	           -0.001111	           -0.359453	           -0.020823
            1.506000	           -3.460800	          419.441628	          -31.852137	           -0.284183	            0.006012	           -0.358370	           -0.022379	            2.712304	           -0.205971	            1.204654	          434.884120	           25.155634	           -0.295960	            0.005441	           -0.704943	           -0.000961	           -0.347014	           -0.020073
            1.506500	           -3.047659	          418.900155	          -31.672056	           -0.284027	            0.006014	           -0.358793	           -0.019861	            2.729932	           -0.206404	            1.486418	          434.700994	           25.154857	           -0.295977	            0.005441	           -0.704934	           -0.001473	           -0.430858	           -0.024932
            1.507000	           -3.185512	          418.179852	          -31.858230	           -0.284427	            0.006013	           -0.358634	           -0.021286	            2.794385	           -0.212885	            1.206004	          434.515671	           25.201248	           -0.296012	            0.005441	           -0.704878	           -0.001002	           -0.360868	           -0.020930
            1.507500	           -3.414028	          418.719198	          -31.534355	           -0.284006	            0.006013	           -0.358515	           -0.021893	            2.685076	           -0.202217	            1.156557	          435.251624	           25.344680	           -0.296035	            0.005441	           -0.705052	           -0.000942	           -0.354423	           -0.020638
            1.508000	           -3.368170	          419.259837	          -31.486290	           -0.284071	            0.006012	           -0.358375	           -0.021611	            2.690105	           -0.202026	            1.345869	          434.700487	           25.154917	           -0.296070	            0.005441	           -0.704933	           -0.001168	           -0.377175	           -0.021826
            1.508500	           -3.185302	          418.900325	          -31.717575	           -0.284216	            0.006013	           -0.358486	           -0.020864	            2.743770	           -0.207748	            1.343875	          435.252970	           25.156888	           -0.295859	            0.005442	           -0.705139	           -0.001176	           -0.381039	           -0.022023
            1.509000	           -3.230899	          418.179056	          -31.674693	           -0.284187	            0.006014	           -0.358749	           -0.020701	            2.679383	           -0.202948	            1.111722	          434.698804	           25.389657	           -0.295899	            0.005441	           -0.704889	           -0.000916	           -0.358031	           -0.020912
            1.509500	           -3.322244	          418.178449	          -31.536902	           -0.284372	            0.006016	           -0.359141	           -0.021562	            2.714007	           -0.204677	            1.203949	          435.068595	           25.062435	           -0.295763	            0.005443	           -0.705213	           -0.000903	           -0.326197	           -0.018791
